<?xml version="1.0" encoding="UTF-8" standalone="no"?>
<svg
   enable-background="new 46 97 631.5 96"
   version="1.1"
   viewBox="46 97 370 80"
   id="svg52"
   sodipodi:docname="HNF1B-db_logo.svg"
   width="370"
   height="80"
   inkscape:version="1.2.1 (9c6d41e410, 2022-07-14)"
   inkscape:export-filename="HNF1B-db_logo.webp"
   inkscape:export-xdpi="48"
   inkscape:export-ydpi="48"
   xmlns:inkscape="http://www.inkscape.org/namespaces/inkscape"
   xmlns:sodipodi="http://sodipodi.sourceforge.net/DTD/sodipodi-0.dtd"
   xmlns="http://www.w3.org/2000/svg"
   xmlns:svg="http://www.w3.org/2000/svg">
  <defs
     id="defs56" />
  <sodipodi:namedview
     id="namedview54"
     pagecolor="#505050"
     bordercolor="#eeeeee"
     borderopacity="1"
     inkscape:pageshadow="0"
     inkscape:pageopacity="0"
     inkscape:pagecheckerboard="0"
     showgrid="false"
     fit-margin-top="1"
     fit-margin-bottom="1"
     fit-margin-right="1"
     fit-margin-left="1"
     inkscape:zoom="1.894057"
     inkscape:cx="285.63026"
     inkscape:cy="22.438607"
     inkscape:window-width="3828"
     inkscape:window-height="1046"
     inkscape:window-x="0"
     inkscape:window-y="0"
     inkscape:window-maximized="1"
     inkscape:current-layer="svg52"
     inkscape:showpageshadow="0"
     inkscape:deskcolor="#505050" />
  <style
     type="text/css"
     id="style2">.st0{fill:#1670B9;} .st1{fill:#74CDD9;}</style>
  <path
     class="st1"
     d="m 209.51905,123.87195 c 3.48798,-8.71735 34.06336,0.91363 37.78387,-8.38487 l -3.9821,9.95229 c -3.72051,9.2985 -34.49938,0.17604 -37.98735,8.8934 z"
     id="path46-6"
     style="fill:#000000;stroke-width:0.674344" />
  <path
     class="st0"
     d="m 302.15934,100.48157 c -8.59329,0 -25.77989,52.42061 -34.94607,52.42061 h 9.81068 c 9.16617,0 26.85405,-52.42061 35.44735,-52.42061 z"
     id="path12"
     style="fill:#000000;fill-opacity:1;stroke-width:0.82615" />
  <path
     class="st0"
     d="m 230.0272,100.48157 c -11.43722,0 -34.31167,52.42061 -46.51138,52.42061 h 13.05749 c 12.19971,0 35.74134,-52.42061 47.17855,-52.42061 z"
     id="path16"
     style="fill:#000000;stroke-width:0.953102" />
  <path
     class="st0"
     d="m 254.52192,100.48157 c -11.43722,0 -34.31167,52.42061 -46.51138,52.42061 h 13.0575 c 12.1997,0 35.74133,-52.42061 47.17855,-52.42061 z"
     id="path18"
     style="fill:#000000;stroke-width:0.953102" />
  <path
     class="st0"
     d="m 141.48402,100.48157 c -11.43723,0 -34.31168,52.42061 -46.511386,52.42061 h 13.057506 c 12.19971,0 35.74132,-52.42061 47.17855,-52.42061 z"
     id="path20"
     style="fill:#46cae4;fill-opacity:1;stroke-width:0.953102" />
  <path
     class="st0"
     d="m 165.88343,100.48157 c -11.43722,0 -34.31168,52.42061 -46.51138,52.42061 h 13.05749 c 12.19971,0 35.74134,-52.42061 47.17856,-52.42061 z"
     id="path22"
     style="fill:#46cae4;fill-opacity:1;stroke-width:0.953102" />
  <path
     class="st1"
     d="m 62.948408,100.48157 c 11.437224,0 34.311675,52.42061 46.511372,52.42061 H 96.402291 c -12.199708,0 -35.741328,-52.42061 -47.178553,-52.42061 z"
     id="path28"
     style="fill:#79787a;fill-opacity:1;stroke-width:0.953102" />
  <path
     class="st1"
     d="m 175.98631,100.48157 c 11.43722,0 34.31168,52.42061 46.51138,52.42061 H 209.4402 c -12.19971,0 -35.74134,-52.42061 -47.17856,-52.42061 z"
     id="path42"
     style="fill:#79787a;fill-opacity:1;stroke-width:0.953102" />
  <path
     class="st1"
     d="m 151.49159,100.48157 c 11.43722,0 34.31167,52.42061 46.51138,52.42061 h -13.0575 c -12.1997,0 -35.74133,-52.42061 -47.17855,-52.42061 z"
     id="path44"
     style="fill:#79787a;fill-opacity:1;stroke-width:0.953102" />
  <path
     class="st1"
     d="m 87.347819,100.48157 c 11.437224,0 34.311671,52.42061 46.511381,52.42061 h -13.0575 c -12.1997,0 -35.741325,-52.42061 -47.178549,-52.42061 z"
     id="path46"
     style="fill:#79787a;fill-opacity:1;stroke-width:0.953102" />
  <text
     xml:space="preserve"
     style="font-weight:bold;font-size:71.165px;line-height:1.25;font-family:sans-serif;-inkscape-font-specification:'sans-serif Bold';stroke-width:0.953102"
     x="329.36066"
     y="152.24214"
     id="text9144"><tspan
       sodipodi:role="line"
       id="tspan9142"
       x="329.36066"
       y="152.24214"
       style="font-style:normal;font-variant:normal;font-weight:bold;font-stretch:normal;font-size:71.165px;font-family:Arial;-inkscape-font-specification:'Arial Bold';stroke-width:0.953102"
       rotate="0 0">1</tspan></text>
  <text
     xml:space="preserve"
     style="font-weight:bold;font-size:71.165px;line-height:1.25;font-family:sans-serif;-inkscape-font-specification:'sans-serif Bold';stroke-width:0.953102"
     x="361.34024"
     y="152.13791"
     id="text9144-0"><tspan
       sodipodi:role="line"
       id="tspan9142-5"
       x="361.34024"
       y="152.13791"
       style="font-style:normal;font-variant:normal;font-weight:bold;font-stretch:normal;font-size:71.165px;font-family:Arial;-inkscape-font-specification:'Arial Bold';stroke-width:0.953102"
       rotate="0 0">B</tspan></text>
  <path
     class="st1"
     d="m 243.75186,100.48157 c 8.4985,0 25.49548,52.42061 34.56055,52.42061 h -9.70245 c -9.06507,0 -26.55779,-52.42061 -35.05628,-52.42061 z"
     id="path40"
     style="fill:#79787a;fill-opacity:1;stroke-width:0.82158" />
  <path
     class="st1"
     d="m 297.33282,103.27583 c 4.18723,-8.403892 33.87543,3.68831 38.34179,-5.27583 l -4.7804,9.59443 c -4.46638,8.96413 -34.39884,-2.63783 -38.58604,5.76605 z"
     id="path46-6-7"
     style="fill:#000000;fill-opacity:1;stroke-width:0.674344" />
  <path
     class="st1"
     d="m 288.97568,119.3127 c 4.18721,-8.4039 33.87541,3.6883 38.34178,-5.27583 l -4.78041,9.59443 c -4.46637,8.96413 -34.39883,-2.63784 -38.58604,5.76604 z"
     id="path46-6-7-9"
     style="fill:#000000;fill-opacity:1;stroke-width:0.674344" />
  <text
     xml:space="preserve"
     style="font-weight:bold;font-size:25.4161px;line-height:1.25;font-family:sans-serif;-inkscape-font-specification:'sans-serif Bold';letter-spacing:4.25083px;stroke-width:0.953102"
     x="65.415413"
     y="172.39879"
     id="text27843"><tspan
       sodipodi:role="line"
       id="tspan27841"
       x="65.415413"
       y="172.39879"
       style="font-style:normal;font-variant:normal;font-weight:bold;font-stretch:normal;font-size:25.4161px;font-family:Arial;-inkscape-font-specification:'Arial Bold';stroke-width:0.953102">Database</tspan></text>
</svg>
