<?xml version="1.0" encoding="UTF-8" standalone="no"?>
<!-- Created with Inkscape (http://www.inkscape.org/) -->

<svg
   width="50mm"
   height="50mm"
   viewBox="0 0 50 50"
   version="1.1"
   id="svg5"
   inkscape:version="1.1 (c68e22c387, 2021-05-23)"
   sodipodi:docname="HNF1B-db_favicon.svg"
   inkscape:export-filename="C:\Users\bernt\Desktop\favicon.png"
   inkscape:export-xdpi="25.537693"
   inkscape:export-ydpi="25.537693"
   xmlns:inkscape="http://www.inkscape.org/namespaces/inkscape"
   xmlns:sodipodi="http://sodipodi.sourceforge.net/DTD/sodipodi-0.dtd"
   xmlns="http://www.w3.org/2000/svg"
   xmlns:svg="http://www.w3.org/2000/svg">
  <sodipodi:namedview
     id="namedview7"
     pagecolor="#505050"
     bordercolor="#eeeeee"
     borderopacity="1"
     inkscape:pageshadow="0"
     inkscape:pageopacity="0"
     inkscape:pagecheckerboard="0"
     inkscape:document-units="mm"
     showgrid="false"
     inkscape:zoom="1.2648958"
     inkscape:cx="230.45377"
     inkscape:cy="48.225317"
     inkscape:window-width="2560"
     inkscape:window-height="1010"
     inkscape:window-x="3834"
     inkscape:window-y="-6"
     inkscape:window-maximized="1"
     inkscape:current-layer="layer1"
     fit-margin-top="1"
     fit-margin-bottom="1"
     fit-margin-right="1"
     fit-margin-left="1" />
  <defs
     id="defs2">
    <pattern
       id="EMFhbasepattern"
       patternUnits="userSpaceOnUse"
       width="6"
       height="6"
       x="0"
       y="0" />
    <pattern
       id="EMFhbasepattern-2"
       patternUnits="userSpaceOnUse"
       width="6"
       height="6"
       x="0"
       y="0" />
  </defs>
  <g
     inkscape:label="Ebene 1"
     inkscape:groupmode="layer"
     id="layer1"
     transform="translate(-26.377092,-117.39813)">
    <path
       style="fill:#477248;fill-opacity:1;fill-rule:nonzero;stroke:#010202;stroke-width:0.712451;stroke-linecap:butt;stroke-linejoin:miter;stroke-miterlimit:10;stroke-dasharray:none;stroke-opacity:1"
       d="m 59.384282,135.09197 c 0.519906,-2.0795 -0.519906,-3.63916 -1.039691,-3.63916 0,0 0,0 0,0 0,0 0,0 0,0 0.519906,-1.5596 0,-4.15895 -2.079501,-5.19869 -0.519906,-1.55961 -1.559657,-2.59936 -3.119252,-3.11927 -1.559596,0 -2.599347,0 -2.599347,0 0,-0.51989 -0.519906,-0.51989 -0.519906,-0.51989 -0.519905,-0.51991 -0.519905,-1.03976 -1.559595,-1.03976 -0.519906,-0.5199 -1.039751,-0.5199 -2.079502,-0.5199 -1.03975,0 -1.559606,0.5199 -2.07945,1.03969 0,0.51991 0,0.51991 -0.519906,1.03975 0,-0.5199 0,-0.5199 0,-1.03975 -0.519906,-0.51991 -1.039751,-1.03969 -2.079503,-1.03969 -1.03975,0 -1.559595,0 -2.07944,0.5199 -1.03975,0 -1.03975,0.5199 -1.559656,1.03976 0,0 -0.519905,0 -0.519905,0.51989 0,0 -1.039751,0 -2.599347,0 -1.559657,0.51991 -2.599408,1.55966 -3.119252,3.11927 -2.079502,1.03974 -2.599347,3.63909 -2.079502,5.19869 0,0 0,0 0,0 0,0 0,0 0,0 -0.519906,0 -1.559596,1.55966 -1.039751,3.63916 0,0 0,0.5199 0.519906,0.5199 -0.519906,0.51991 -0.519906,1.55959 -0.519906,2.0795 0,1.5596 1.039751,2.59935 2.079502,3.6391 0,0 0,1.03975 0.519906,1.55959 0.519906,2.07951 2.599407,2.59935 3.639158,2.59935 0.519906,0.5199 1.039689,0.5199 1.559595,0.5199 2.079502,0 3.639097,-1.03974 4.158942,-1.55959 0,0 0,0 0,0 0.519906,0.51991 2.079502,1.03969 3.119253,1.03969 1.559606,0 3.119252,-0.5199 3.639107,-1.03969 0,0 0,0 0,0 0,0 0,0 0,0 0.519906,0.51991 2.079501,1.55959 4.159003,1.55959 0.519906,0 1.039751,0 1.559596,-0.5199 1.039751,0 3.119252,-0.5199 3.639097,-2.59935 0.519906,-0.5199 0.519906,-1.55959 0.519906,-1.55959 1.03975,-1.03975 2.079441,-2.0795 2.079441,-3.6391 0,-0.51991 0,-1.55965 -0.519906,-2.0795 0.519906,0 0.519906,-0.5199 0.519906,-0.5199 z"
       id="path838" />
    <path
       style="fill:#8c8c8c;fill-opacity:1;stroke:#010202;stroke-width:0.613472;stroke-miterlimit:4;stroke-dasharray:none;stroke-opacity:1"
       d="m 40.982646,164.02867 c -1.904183,-0.35827 -2.987401,-1.31181 -3.410998,-3.00264 -0.210833,-0.84156 -0.238549,-4.57476 -0.04199,-5.65516 0.319873,-1.75815 0.854357,-2.83514 1.758734,-3.54385 0.418797,-0.32819 0.509375,-0.46155 0.689389,-1.01502 0.566247,-1.74097 1.182331,-2.0971 2.31705,-1.33936 0.30844,0.20597 0.661975,0.37449 0.785629,0.37449 0.313688,0 0.612626,-0.23277 0.819516,-0.63814 0.09682,-0.18969 0.270745,-0.42916 0.386507,-0.53214 l 0.210475,-0.18725 -0.05647,1.31072 c -0.05161,1.19795 -0.179205,2.00166 -0.451198,2.84204 l -0.101699,0.31423 -0.165266,-0.36104 c -0.194403,-0.42469 -0.68821,-0.91721 -1.060236,-1.05747 -0.712422,-0.26859 -1.374842,0.0587 -1.374842,0.67933 0,0.37265 0.306732,0.8129 0.566373,0.8129 0.239827,0 0.450068,0.34379 0.518998,0.84867 0.07191,0.5267 -0.1977,1.33029 -0.624492,1.86137 -0.303275,0.37739 -0.30844,0.37951 -0.500686,0.20487 -0.288884,-0.26243 -0.556858,-0.38082 -1.091407,-0.4822 -0.38562,-0.0731 -0.542904,-0.0618 -0.793878,0.0573 -0.770452,0.3656 -0.510087,1.53573 0.341713,1.53573 0.284098,0 0.740776,0.32291 0.740776,0.5238 0,0.0747 -0.168521,0.47089 -0.374491,0.88054 -0.20597,0.40965 -0.37449,0.86641 -0.37449,1.01501 0,0.38643 0.404054,0.76382 0.817808,0.76382 0.406574,0 0.715524,-0.31226 1.093455,-1.10516 0.207772,-0.43591 0.339524,-0.59571 0.552301,-0.66988 0.73026,-0.25457 1.933366,0.005 2.173365,0.46936 0.07581,0.1466 0.137829,0.35566 0.137829,0.46459 0,0.73228 0.815972,1.09695 1.375714,0.61483 0.231294,-0.19922 0.261293,-0.28672 0.251073,-0.73221 -0.02969,-1.29446 -0.919474,-2.23653 -2.394333,-2.53503 l -0.572158,-0.11581 0.539502,-0.58272 0.539502,-0.58273 h 0.538872 c 0.815514,0 1.475609,0.15411 2.230572,0.52074 0.733076,0.35599 0.930338,0.3581 1.306379,0.0139 0.135536,-0.12405 0.210651,-0.3011 0.210651,-0.49651 0,-0.43641 -0.07682,-0.58171 -0.436891,-0.82639 l -0.319668,-0.21722 0.682552,-0.3284 c 0.375405,-0.18062 1.012119,-0.60504 1.414916,-0.94315 0.783701,-0.65784 1.220853,-0.8497 2.169937,-0.95235 0.308962,-0.0334 0.797935,-0.12053 1.086608,-0.19359 0.536911,-0.1359 1.755424,-0.0733 2.798738,0.14393 0.671094,0.13969 0.839685,0.11318 1.130672,-0.17781 0.374411,-0.37441 0.368513,-0.76937 -0.01726,-1.15513 l -0.290908,-0.2909 0.227633,-0.16582 c 0.125192,-0.0912 0.531687,-0.42048 0.903311,-0.73174 0.738094,-0.61818 0.961004,-0.67787 1.5838,-0.42406 0.19285,0.0786 0.62809,0.43906 0.975982,0.8083 0.586821,0.62284 0.647791,0.66248 0.931723,0.60569 0.442506,-0.0885 0.734124,-0.40047 0.734124,-0.78533 0,-0.32171 -0.202375,-0.69076 -0.640193,-1.16744 -0.129565,-0.14106 -0.213707,-0.27835 -0.186986,-0.30507 0.02673,-0.0267 0.481786,-0.0899 1.011247,-0.14031 2.285157,-0.21773 4.811162,-1.20824 5.760212,-2.25874 0.405295,-0.44861 0.542476,-0.77688 0.467439,-1.11854 -0.07484,-0.34067 -0.324877,-0.55154 -0.732468,-0.61768 -0.313466,-0.0509 -0.371921,-0.0179 -0.877895,0.49605 -0.640106,0.65013 -1.403983,1.04499 -2.778686,1.43637 -1.095494,0.31188 -2.058137,0.47065 -2.853679,0.47065 -1.508991,0 -3.182534,0.6376 -4.436058,1.69007 -0.193525,0.16249 -0.326613,0.22961 -0.295738,0.14914 0.102029,-0.26587 -0.147435,-0.80417 -0.44368,-0.95736 -0.631333,-0.32648 -1.138919,0.0762 -1.233201,0.97819 -0.03216,0.30762 -0.125727,0.72743 -0.207941,0.93291 -0.135674,0.33906 -0.209939,0.39601 -0.803368,0.61596 -0.359626,0.13331 -0.776304,0.24238 -0.925948,0.24238 -0.470173,0 -2.44664,0.50191 -3.098296,0.7868 -0.123492,0.054 -0.162,-0.0161 -0.210789,-0.38378 -0.08773,-0.66111 -0.380913,-1.3607 -0.656642,-1.56685 -0.314843,-0.23539 -0.846679,-0.1182 -1.117075,0.24616 l -0.187476,0.25262 0.210455,0.87371 c 0.182985,0.75966 0.197033,0.94629 0.107638,1.42989 -0.05655,0.30591 -0.155189,0.6081 -0.219197,0.67155 -0.298182,0.29558 -2.037081,0.54167 -2.034415,0.28792 6.64e-4,-0.0643 0.08481,-0.51726 0.186949,-1.00644 0.102144,-0.48917 0.213056,-1.43946 0.246468,-2.11175 l 0.06075,-1.22233 0.318736,-0.009 c 0.247052,-0.007 0.428833,-0.11315 0.80823,-0.47197 0.75847,-0.71733 1.377866,-0.75618 2.280511,-0.14304 0.412902,0.28047 0.535596,0.32052 0.819012,0.26735 0.272662,-0.0512 0.39228,-0.15463 0.656853,-0.56823 0.662313,-1.03536 1.551137,-1.23524 2.448156,-0.55052 0.705554,0.53855 1.117605,0.43319 1.660966,-0.42473 0.430166,-0.6792 1.189022,-0.9262 1.932086,-0.62889 0.618555,0.2475 0.809695,0.20224 1.32942,-0.31475 0.568916,-0.56594 1.03675,-0.7283 1.613185,-0.55985 0.210658,0.0615 0.561397,0.13237 0.779416,0.15735 0.371352,0.0426 0.418651,0.0204 0.748979,-0.351 0.567961,-0.63858 1.285329,-0.81997 2.023353,-0.5116 0.525851,0.21971 0.680297,0.17531 1.267197,-0.36424 0.625627,-0.57516 1.024787,-0.6963 1.718606,-0.5216 0.582518,0.14668 0.885205,-0.006 1.213027,-0.61326 0.448746,-0.83079 1.107351,-1.18303 1.842054,-0.98519 0.727709,0.19595 1.135694,0.73584 1.135694,1.50289 0,0.47613 -0.158766,0.78449 -0.647642,1.25786 -0.435144,0.42135 -0.477307,0.67498 -0.231927,1.39513 0.242531,0.7118 -0.01367,1.45001 -0.640947,1.84669 -0.268078,0.16953 -0.400904,0.18626 -1.093908,0.13777 -0.76443,-0.0535 -0.796953,-0.0473 -1.053252,0.19819 -0.154963,0.14846 -0.264687,0.35273 -0.264994,0.49332 -0.0018,0.75261 -0.483442,1.4955 -1.1024,1.69976 -0.398213,0.13143 -0.995481,0.0432 -1.332592,-0.19684 -0.140301,-0.0999 -0.367935,-0.22455 -0.505852,-0.27698 -0.353789,-0.13451 -0.834839,0.0801 -0.964535,0.43024 -0.05477,0.14794 -0.171141,0.46982 -0.258544,0.71529 -0.235774,0.66218 -0.667755,0.95803 -1.398821,0.95803 -0.467956,0 -0.635241,-0.0457 -0.941846,-0.25746 -0.72791,-0.50269 -1.343766,-0.27081 -1.534372,0.57769 -0.17731,0.78939 -0.781116,1.3192 -1.500473,1.31662 -0.415443,-0.002 -0.706544,-0.12896 -1.356658,-0.59409 -0.18185,-0.13011 -0.328015,-0.15851 -0.576155,-0.11196 -0.271234,0.0509 -0.391658,0.15486 -0.653567,0.56429 -0.50111,0.78336 -0.788346,0.94326 -1.650143,0.91865 -0.836328,-0.0239 -1.138674,0.12592 -1.617313,0.80137 -0.158407,0.22354 -0.448755,0.52545 -0.645215,0.6709 -0.475931,0.35235 -0.811053,0.83094 -2.097337,2.99526 -1.878744,3.16116 -2.688152,4.11738 -4.021052,4.75037 -0.697036,0.33102 -0.771491,0.34584 -1.853254,0.3688 -0.695544,0.0147 -1.40497,-0.0284 -1.852957,-0.11266 z"
       id="path864"
       sodipodi:nodetypes="sssssssscsscssssssssssssssssssssscccssssscssssssscsssssssssssssssscssssssssscssscsscssssssssssscssssssssssscsssssssscsssssssssccs" />
    <path
       style="fill:#fdd5a5;fill-opacity:1;fill-rule:evenodd;stroke:#010202;stroke-width:0.811643;stroke-miterlimit:4;stroke-dasharray:none;stroke-opacity:1"
       d="m 63.660206,152.52766 c 1.286884,0.77213 2.059015,-1.54427 2.316413,-2.57377 0.25739,-2.5738 -2.831174,-5.14758 -2.831174,-8.75091 0,-2.83114 1.544255,-3.86066 2.831174,-4.37542 0.25739,0 0.25739,0 0,-0.51476 -0.77216,-1.80165 -3.088571,-4.89019 -2.316413,-6.94923 1.544253,-4.89018 10.295134,-4.89018 11.324656,2.31642 0.772123,4.37545 0,9.78039 -3.088543,11.06728 -2.316404,1.02952 -6.434461,0.25738 -5.404975,-3.34593 0,-0.51476 0.257398,-0.77214 -0.25739,-0.51476 -0.772131,0.25738 -1.544282,0.51476 -1.544282,2.3164 0,3.34594 3.088563,5.66235 2.831166,9.00827 -0.514761,3.08854 -2.573776,3.34593 -2.573776,4.11807 1.029521,5.14758 -4.375454,3.86068 -4.632817,6.1771 -0.257398,1.02951 -0.257398,1.02951 -0.257398,1.02951 0,0.51474 -0.772123,0.51474 -0.772123,0 0,-1.02951 0,-1.02951 0,-1.02951 -0.257397,-2.31642 -5.662345,-1.02952 -4.890187,-6.1771 0.257399,-0.77214 -2.059042,-1.02953 -2.316412,-4.11807 -0.257391,-3.34592 2.573783,-5.66233 2.573783,-9.00827 0,-1.80164 -0.772132,-2.05902 -1.286891,-2.3164 -0.514761,-0.25739 -0.257398,0 -0.257398,0.51476 1.029521,3.60331 -3.345898,4.37545 -5.66231,3.34593 -2.831172,-1.28689 -3.603323,-6.69183 -3.088564,-11.06728 1.286884,-7.2066 9.780395,-7.2066 11.582047,-2.31642 0.772158,2.05904 -1.544255,5.14758 -2.573775,6.94923 0,0.51476 -0.257398,0.51476 0.257397,0.51476 1.286884,0.51476 2.573803,1.54428 2.573803,4.37542 0,3.60333 -2.831172,6.17711 -2.573803,8.75091 0,1.0295 0.772151,3.3459 2.059043,2.57377 1.801645,-1.28689 6.434468,-1.28689 7.978749,0 z"
       id="path827" />
  </g>
</svg>
